<svg id="main-logo" xmlns="http://www.w3.org/2000/svg" viewBox="0 0 567.48 451.27"><defs><style>.cls-1{fill:#cc923b;}.cls-2{fill:#5ba3a5;}.cls-3{fill:#6e9799;}.cls-4{fill:none;}.cls-5{fill:#263d47;}.cls-6{fill:#39535b;}.cls-7{fill:#8cb2b6;}.cls-8{fill:#aaced1;}.cls-9{fill:#47646b;}.cls-10{fill:#617a7c;}.cls-11{fill:#7d9293;}.cls-12{fill:#619199;}.cls-13{fill:#487984;}.cls-14{fill:#24404c;}.cls-15{fill:#9accca;}.cls-16{fill:#6fb7b7;}.cls-17{fill:#529499;}.cls-18{fill:#b9ddda;}.cls-19{fill:#cde9e5;}.cls-20{fill:#20323c;}.cls-21{fill:#2b3442;}.cls-22{fill:#252d3a;}.cls-23{fill:#394559;}</style></defs><title>Logo_Main</title><g id="grouped-logo-main"><g id="the_elk" data-name="the elk"><path class="cls-1" d="M158.67,352.52H129.06V331.38h54.17V437.07H158.67Zm45.85-21.14h48.42v21.14H215.32l-10.8-15.39Z" transform="translate(-129.06 -61.32)"/><path class="cls-1" d="M199.47,331.38H224.1V374.2h57.75l.07,21.14H224.1v41.73H199.47Z" transform="translate(-129.06 -61.32)"/><path class="cls-1" d="M270,331.38h74.46v21.21H294.67V374.2h42.74v21.14H294.67v20.59h50.52v21.14H270Z" transform="translate(-129.06 -61.32)"/><path class="cls-1" d="M470.7,331.38h74.45v21.21H495.33V374.2h42.75v21.14H495.33v20.59h50.52v21.14H470.7Z" transform="translate(-129.06 -61.32)"/><path class="cls-1" d="M559.91,331.38h24.56v84.55h53.7v21.14H559.91Zm65.52,53.15,40.88-53.15H695l-37.14,47.09,38.7,58.6H667.39L638.1,394.71,625.43,405H600.79V331.38h24.64Z" transform="translate(-129.06 -61.32)"/></g><g id="cafe"><path class="cls-2" d="M362.48,474.9a23.33,23.33,0,0,0-3.72-5.21,23.59,23.59,0,0,0-5-4,24,24,0,0,0-5.93-2.55,24.43,24.43,0,0,0-6.65-.9,23.88,23.88,0,0,0-22.15,14.5,23.21,23.21,0,0,0-1.9,9.39,22.94,22.94,0,0,0,1.9,9.34,23.83,23.83,0,0,0,5.16,7.56,24.21,24.21,0,0,0,7.65,5.05,23.8,23.8,0,0,0,9.34,1.84,24.24,24.24,0,0,0,6.61-.9,24.89,24.89,0,0,0,6-2.54,23.14,23.14,0,0,0,8.69-9.15h3.16a24.16,24.16,0,0,1-4.11,6.31,26.58,26.58,0,0,1-5.73,4.81,27.74,27.74,0,0,1-21.74,3.2,28.14,28.14,0,0,1-6.45-2.65,25.81,25.81,0,0,1-5.44-4.12,26.72,26.72,0,0,1-4.21-5.33,25.72,25.72,0,0,1-2.73-6.33A26.26,26.26,0,0,1,318,472.66a27.25,27.25,0,0,1,4.21-5.37,25.52,25.52,0,0,1,5.44-4.13,27.7,27.7,0,0,1,6.45-2.65,26.89,26.89,0,0,1,7.16-.94,27.31,27.31,0,0,1,7.66,1.07,26.49,26.49,0,0,1,12.63,7.93,24.8,24.8,0,0,1,4.09,6.33Z" transform="translate(-129.06 -61.32)"/><path class="cls-2" d="M408,497.86h-29l-6,13.86H370l22.1-51.1h3l22.1,51.1H414Zm-27.81-2.67h26.64l-13.19-30.55-.11-.34-.11.34Z" transform="translate(-129.06 -61.32)"/><path class="cls-2" d="M424,460.62h32.5v2.78H426.85v22.43h25.89v2.67H426.85v23.22H424Z" transform="translate(-129.06 -61.32)"/><path class="cls-2" d="M464.88,460.62h32.5v2.78H467.77v21.68h25.89v2.67H467.77V509h30v2.7H464.88Zm24.12-16-6.12,8.87h-2.41l6.09-9.73Z" transform="translate(-129.06 -61.32)"/></g><g id="parts"><text x="-129.06" y="-61.32"/><polygon class="cls-3" points="273.5 212.1 261.9 239.29 259.55 245.09 254.77 231.38 269.58 213.82 269.65 213.75 273.5 212.1"/><line class="cls-4" x1="284.14" y1="214.29" x2="282.43" y2="212.96"/><line class="cls-4" x1="269.55" y1="213.81" x2="268.41" y2="214.29"/><polygon class="cls-5" points="292.67 239.3 277.41 259 261.88 239.3 273.53 212.11 277.51 213.72 281.01 212.2 292.67 239.3"/><line class="cls-4" x1="281.01" y1="212.2" x2="281.01" y2="212.11"/><line class="cls-4" x1="414.68" y1="97.48" x2="413.74" y2="98.81"/><path class="cls-4" d="M410.84,349" transform="translate(-129.06 -61.32)"/><path class="cls-4" d="M419.07,349" transform="translate(-129.06 -61.32)"/><polygon class="cls-6" points="292.67 239.3 282.06 287.71 272.49 287.71 261.88 239.3 277.41 259 292.67 239.3"/><polygon class="cls-7" points="272.48 287.71 264.72 287.71 258.76 298.76 253.83 278.31 263.7 270.47 256.96 251.51 259.55 245.09 261.9 239.29 272.48 287.71"/><polygon class="cls-5" points="290.01 287.71 286.98 294.24 267.75 294.24 264.72 287.71 290.01 287.71"/><polygon class="cls-7" points="300.92 278.31 295.98 298.76 290.03 287.71 282.04 287.71 292.69 239.29 295.12 245.71 295.12 245.95 297.39 251.51 290.89 268.99 300.92 278.31"/><polygon class="cls-4" points="283.76 301.25 278.36 313.19 276.28 313.19 270.88 301.25 283.76 301.25"/><polygon class="cls-8" points="295.98 298.76 290.03 323.44 277.1 331.35 264.72 323.44 258.76 298.76 264.72 287.71 267.77 294.21 270.91 301.27 276.31 313.18 278.35 313.18 283.76 301.27 286.97 294.21 290.03 287.71 295.98 298.76"/><polygon class="cls-6" points="283.76 301.25 278.36 313.19 276.28 313.19 270.88 301.25 283.76 301.25"/><polygon class="cls-5" points="286.98 294.24 283.76 301.25 270.88 301.25 267.75 294.24 286.98 294.24"/><polygon class="cls-3" points="299.59 231.38 295.12 245.71 292.69 239.29 281.02 212.18 281.33 212.1 282.11 212.65 282.43 212.96 299.59 231.38"/><polygon class="cls-9" points="256.95 333.37 233.65 316.51 235.92 293.3 256.95 333.37"/><line class="cls-4" x1="250.89" y1="224.99" x2="246.53" y2="229.07"/><polygon class="cls-10" points="256.95 333.37 234.59 344.93 233.65 316.51 256.95 333.37"/><polygon class="cls-11" points="275.71 374.58 234.59 344.93 256.95 333.37 275.71 374.58"/><polygon class="cls-7" points="319.57 344.93 275.71 374.58 297.31 333.37 319.57 344.93"/><polygon class="cls-12" points="320.61 316.51 319.57 344.93 297.31 333.37 320.61 316.51"/><polygon class="cls-13" points="320.61 316.51 297.31 333.37 318.24 293.3 320.61 316.51"/><polygon class="cls-14" points="318.23 293.27 297.31 333.39 275.69 374.61 256.96 333.39 235.88 293.27 236.35 288.65 242.78 268.99 245.76 293.27 259.86 326.89 277.1 347.02 277.02 347.1 277.25 347.1 277.1 347.02 294.34 326.89 308.36 293.27 311.5 268.99 317.76 288.65 318.23 293.27"/><path class="cls-4" d="M363.7,406.23" transform="translate(-129.06 -61.32)"/><polygon class="cls-15" points="157.57 159.06 142.23 159.06 141.09 157.83 135.12 141.25 135.12 114.91 139.67 100.32 143.08 118.8 143.08 118.99 141.47 131.4 149.62 153.66 157.57 159.06"/><polygon class="cls-16" points="157.57 159.06 156.82 174.5 142.23 159.06 157.57 159.06"/><polygon class="cls-10" points="189.88 186.15 156.82 174.5 172.73 167.68 172.83 167.77 189.88 186.15"/><polygon class="cls-9" points="216.59 205.29 189.88 186.15 172.83 167.77 195.37 180.18 193.38 170.81 193.29 137.84 196.61 144.47 199.26 162.28 206.93 180.18 216.59 205.29"/><polygon class="cls-6" points="251.46 203.87 216.59 205.29 206.93 180.18 251.46 203.87"/><path class="cls-5" d="M398.71,265.2l-4.86,5.48,3.61,4.94-17.24,10.73s-20.45-15.83-34.55-19.74l34.87-1.41,6.89-8.07,3.68-18.1V192.25l2.67-.39,4.07,31.34.86,10.26Z" transform="translate(-129.06 -61.32)"/><line class="cls-4" x1="151.23" y1="71.81" x2="151.04" y2="72.09"/><path class="cls-5" d="M452.62,253.91l-11,25.39c-5,3.29-8.62,6-9.64,6.82a.62.62,0,0,0-.23.23l-5.25-3.29-12-7.44,3.6-4.94-4.93-5.48V233.46l.94-10.26,4.07-31.34,2.67.39V239l3.68,18.1,6.89,8.07Z" transform="translate(-129.06 -61.32)"/><path class="cls-6" d="M489.55,249.84l-23.21,16.77c-7.48,2.09-16.76,7.48-23.77,12v.1c-.29.19-.67.38-.95.57l11-25.39h.09Z" transform="translate(-129.06 -61.32)"/><polygon class="cls-17" points="404.26 153.66 389.3 177.25 360.5 188.52 323.64 192.59 346.95 180.18 354.53 162.28 357.27 144.47 360.59 137.84 360.5 170.81 358.41 180.18 394.13 160.57 404.26 153.66"/><polygon class="cls-16" points="418.76 114.91 418.76 141.25 412.69 157.83 397.06 174.5 389.3 177.25 404.26 153.66 412.41 131.4 411.27 122.3 410.42 115.77 410.14 103.92 409.95 93.12 411.94 93.12 413.74 98.81 414.21 100.23 414.97 102.69 418.76 114.91"/><polygon class="cls-15" points="411.27 122.3 394.13 160.57 358.41 180.18 360.5 170.81 367.13 167.87 387.12 140.59 389.58 133.2 389.67 133.01 389.96 132.25 410.14 103.92 410.42 115.77 411.27 122.3"/><polygon class="cls-18" points="415.92 97.48 414.21 100.23 413.74 98.81 411.94 93.12 409.95 93.12 410.14 103.92 389.96 132.25 400.85 100.32 402.65 88.86 402.65 88.67 403.22 85.45 412.88 50.59 415.92 97.48"/><polygon class="cls-19" points="403.22 85.45 403.31 84.79 401.7 46.89 394.22 14.87 394.22 0 396.87 1.8 412.88 50.59 403.22 85.45"/><line class="cls-4" x1="414.21" y1="100.23" x2="414.12" y2="100.32"/><polygon class="cls-18" points="159.66 0 159.66 13.45 144.6 39.79 157.01 1.8 159.66 0"/><polygon class="cls-15" points="159.66 13.45 159.66 14.87 152.46 45.47 152.37 45.66 139.67 70.48 141 50.59 144.6 39.79 159.66 13.45"/><polygon class="cls-16" points="152.37 45.66 152.08 46.89 151.04 72.09 151.04 72.19 137.87 97.48 139.67 70.48 152.37 45.66"/><polygon class="cls-17" points="195.37 180.18 172.83 167.77 172.73 167.68 165.63 163.79 143.08 118.99 143.08 118.8 139.67 100.32 137.87 97.48 151.04 72.19 150.56 84.79 153.03 100.32 166.76 140.59 186.75 167.87 193.38 170.81 195.37 180.18"/><polygon class="cls-17" points="172.73 167.68 156.82 174.5 157.57 159.06 159.75 160.57 165.63 163.79 172.73 167.68"/><path class="cls-20" d="M485.21,273.42l-12.14,1.73-19.59,7-10.73,10.11-6,.55v-2.35l-4.46-4.08-.32-.23a.62.62,0,0,0-.23.23l-5.25-3.29-13.32-7.44,15.43,17.08L424.18,307l2.27,5.8L420,330.31l10,9.32L425,360.08l-6,24.68-12.92,7.92-12.38-7.92-6-24.68-4.93-20.45,9.87-7.83-6.74-19,2.59-6.43-4.78-13.71,13.63-17.08-17.24,10.73-4.62,4.08v2.35l-6-.55-10.73-10.11-19.59-7-12.14-1.73-3.14,3,11.83,29.46,9.95,6.11,1.42,4.55,11.59-.86,4.86,10.81,8.15,3.84,3,24.29,14.1,33.61,17.24,20.14,17.23-20.14,14-33.61,3.13-24.29,8.07-3.84,4.94-10.81,11.52.86,1.49-4.55,9.79-6.11,11.83-29.46ZM359.07,303l-10.27,1.65-4.07-2.12-5.25-2.66-6.35-16.06,2.82-4.08.24-.39,19.43,8.93,10.18,8.15Zm113.84-3.13-5.32,2.66-4.08,2.12L453.17,303l-6.66-6.58,10.18-8.15,19.51-8.93,1.49,2.35,1.41,2.12Z" transform="translate(-129.06 -61.32)"/><polygon class="cls-21" points="217.71 231.38 215.67 241.17 210.42 238.51 204.07 222.44 206.9 218.37 217.71 231.38"/><polygon class="cls-22" points="236.75 235.06 217.71 231.38 206.9 218.37 207.13 217.98 226.56 226.91 236.75 235.06"/><polygon class="cls-23" points="236.75 235.06 230.01 241.64 219.74 243.28 215.67 241.17 217.71 231.38 236.75 235.06"/><path class="cls-4" d="M432,286.12a.62.62,0,0,0-.23.23l-5.25-3.29Z" transform="translate(-129.06 -61.32)"/><polygon class="cls-23" points="338.53 241.17 334.45 243.28 324.11 241.64 317.45 235.06 336.41 231.38 338.53 241.17"/><polygon class="cls-21" points="350.05 222.44 343.86 238.51 338.53 241.17 336.41 231.38 348.63 220.33 350.05 222.44"/><polygon class="cls-22" points="348.63 220.33 336.41 231.38 317.45 235.06 327.64 226.91 347.15 217.98 348.63 220.33"/></g></g></svg>