<svg xmlns="http://www.w3.org/2000/svg" viewBox="0 0 38.91 38.91"><defs><style>.cls-1{fill:#001746;}.cls-1,.cls-2{stroke:#001746;stroke-linecap:round;stroke-linejoin:round;stroke-width:1.35px;}.cls-2{fill:none;}</style></defs><title>phone</title><g id="Layer_2" data-name="Layer 2"><g id="OBJECTS"><path class="cls-1" d="M4,2.05,2.25,5S-4.51,14.23,10,28.81h0l.06.06.07.07h0c14.58,14.48,23.84,7.72,23.84,7.72l2.92-1.78a3.44,3.44,0,0,0,.37-5.18l-3.48-3.48a3.44,3.44,0,0,0-4.5-.32l-3.7,2.37s-2.49,1.47-9.45-5.46-5.46-9.45-5.46-9.45L13,9.66a3.45,3.45,0,0,0-.32-4.5L9.21,1.68A3.43,3.43,0,0,0,4,2.05Z"/><path class="cls-2" d="M21.65,9.69a5.55,5.55,0,1,1,7.85,7.84"/><path class="cls-2" d="M19.16,7.19A9.08,9.08,0,1,1,32,20"/><path class="cls-2" d="M16.62,4.66a12.66,12.66,0,0,1,17.91,17.9"/></g></g></svg>